HIERARCHY
ROOT ROOT
{
	OFFSET 0.000000 56.020000 -5.659234
	CHANNELS 6 Xposition Yposition Zposition Xrotation Yrotation Zrotation 
	JOINT C_spine0001_bind_JNT
	{
		OFFSET 0.000000 1.618999 0.000000
		CHANNELS 3 Xrotation Yrotation Zrotation
		JOINT C_spine0002_bind_JNT
		{
			OFFSET 0.000000 4.942001 0.000001
			CHANNELS 3 Xrotation Yrotation Zrotation
			JOINT C_spine0003_bind_JNT
			{
				OFFSET 0.000000 4.942001 -0.000000
				CHANNELS 3 Xrotation Yrotation Zrotation
				JOINT C_neck0001_bind_JNT
				{
					OFFSET 0.000000 17.026009 -0.000000
					CHANNELS 3 Xrotation Yrotation Zrotation
					JOINT C_neck0002_bind_JNT
					{
						OFFSET 0.000000 3.249985 0.000000
						CHANNELS 3 Xrotation Yrotation Zrotation
						JOINT C_head_bind_JNT
						{
							OFFSET 0.000000 5.278008 0.000000
							CHANNELS 3 Xrotation Yrotation Zrotation
							End Site
							{
								OFFSET 0.000000 0.000000 0.000000
							}
						}
					}
				}
				JOINT L_clavicle_bind_JNT
				{
					OFFSET 4.590000 12.067001 0.834000
					CHANNELS 3 Xrotation Yrotation Zrotation
					JOINT L_armUpper0001_bind_JNT
					{
						OFFSET 7.812635 0.512001 -3.452945
						CHANNELS 3 Xrotation Yrotation Zrotation
						JOINT L_armLower0001_bind_JNT
						{
							OFFSET 15.265892 -6.552116 -0.058157
							CHANNELS 3 Xrotation Yrotation Zrotation
							JOINT L_hand0001_bind_JNT
							{
								OFFSET 14.747667 -6.369995 5.049225
								CHANNELS 3 Xrotation Yrotation Zrotation
								End Site
								{
									OFFSET 0.000000 0.000000 0.000000
								}
							}
						}
					}
				}
				JOINT R_clavicle_bind_JNT
				{
					OFFSET -4.590000 12.067001 0.834000
					CHANNELS 3 Xrotation Yrotation Zrotation
					JOINT R_armUpper0001_bind_JNT
					{
						OFFSET -7.812635 0.512001 -3.452945
						CHANNELS 3 Xrotation Yrotation Zrotation
						JOINT R_armLower0001_bind_JNT
						{
							OFFSET -15.265890 -6.552124 -0.058160
							CHANNELS 3 Xrotation Yrotation Zrotation
							JOINT R_hand0001_bind_JNT
							{
								OFFSET -14.746784 -6.369629 5.048937
								CHANNELS 3 Xrotation Yrotation Zrotation
								End Site
								{
									OFFSET 0.000000 0.000000 0.000000
								}
							}
						}
					}
				}
			}
		}
	}
	JOINT C_pelvis0001_bind_JNT
	{
		OFFSET -0.000000 0.000000 0.000000
		CHANNELS 3 Xrotation Yrotation Zrotation
		JOINT L_legUpper0001_bind_JNT
		{
			OFFSET 6.599999 -6.027000 0.539000
			CHANNELS 3 Xrotation Yrotation Zrotation
			JOINT L_legLower0001_bind_JNT
			{
				OFFSET -0.140713 -19.187443 0.040261
				CHANNELS 3 Xrotation Yrotation Zrotation
				JOINT L_foot0001_bind_JNT
				{
					OFFSET -0.132215 -18.028637 -1.138370
					CHANNELS 3 Xrotation Yrotation Zrotation
					JOINT L_foot0002_bind_JNT
					{
						OFFSET 0.007014 -4.693133 9.886524
						CHANNELS 3 Xrotation Yrotation Zrotation
						End Site
						{
							OFFSET 0.000000 0.000000 0.000000
						}
					}
				}
			}
		}
		JOINT R_legUpper0001_bind_JNT
		{
			OFFSET -6.599999 -6.027000 0.539000
			CHANNELS 3 Xrotation Yrotation Zrotation
			JOINT R_legLower0001_bind_JNT
			{
				OFFSET 0.140710 -19.187164 0.040550
				CHANNELS 3 Xrotation Yrotation Zrotation
				JOINT R_foot0001_bind_JNT
				{
					OFFSET 0.132215 -18.028633 -1.138362
					CHANNELS 3 Xrotation Yrotation Zrotation
					JOINT R_foot0002_bind_JNT
					{
						OFFSET -0.007014 -4.693128 9.886505
						CHANNELS 3 Xrotation Yrotation Zrotation
						End Site
						{
							OFFSET 0.000000 0.000000 0.000000
						}
					}
				}
			}
		}
	}
}
MOTION
Frames: 5
Frame Time: 0.033333
0.000000 48.639591 0.000000 0.039300 7.699482 -0.028288 -0.346680 -8.031793 -0.675172 -4.718072 0.032278 -0.057695 2.207744 0.462275 -0.408937 15.742081 -0.667636 -0.366749 -0.014152 0.289938 -0.015242 -7.951768 -0.719020 -0.235085 16.631117 3.840908 21.554110 -24.797997 -5.109224 -84.653481 5.235708 18.410286 0.374125 -4.601401 -16.344170 -26.497162 18.993608 -3.119742 -21.403845 -24.458113 2.521744 85.804070 4.901371 -21.685211 -1.091954 -3.733042 16.249613 27.596413 2.194458 -8.243925 -0.143668 -2.914868 0.211609 -0.168019 4.706363 1.290120 0.108437 -2.860363 2.430752 0.412386 -1.451103 -0.194488 0.305854 -5.906600 -1.649574 -0.142569 3.852971 -0.838767 0.800101 0.388485 -2.652530 -0.360022 -0.989165 0.260502 -0.361921 
-0.062350 48.670666 0.237028 0.017259 7.635923 -0.020305 -0.382572 -7.706860 -0.442102 -4.926865 -0.159602 -0.015780 2.163112 0.351258 -0.605971 15.850942 -0.624845 -0.444742 -0.021603 0.020661 -0.050559 -7.389892 -1.223873 -0.235943 16.306490 4.620083 21.990458 -24.938259 -5.743135 -85.076416 5.807590 18.876944 0.039629 -4.502309 -16.764723 -27.578133 19.353874 -3.366861 -21.853222 -24.106001 2.314440 85.512444 5.234365 -21.278088 -0.740632 -3.367467 16.128204 27.704218 2.227038 -7.977017 -0.053663 -2.471820 0.339285 0.111262 4.481586 0.593964 -0.048557 -2.477464 2.021132 0.150139 -1.737518 0.403217 0.527386 -5.983133 -1.735969 -0.114018 4.194752 -0.517045 1.004342 0.114721 -3.062544 -1.091868 -0.803378 0.080502 0.090781 
-0.096381 48.593445 0.417377 0.010048 7.278063 -0.026243 -0.487407 -7.179473 -0.500937 -4.945611 0.020286 0.191594 2.276418 0.442128 -0.610605 15.668071 -0.791732 -0.267626 0.042860 -0.074701 -0.111242 -7.105376 -1.514964 -0.202345 16.184320 4.449108 22.102638 -24.805885 -5.822271 -85.304962 5.272245 19.018744 -0.170797 -5.157111 -16.949097 -27.508896 19.363665 -3.583214 -21.959528 -24.309542 2.235817 85.745667 5.034134 -21.615456 -0.792947 -3.789574 15.877016 27.781330 2.451356 -7.591969 -0.041054 -2.323310 0.255763 0.017186 4.137960 0.485152 -0.098119 -2.929775 1.773306 0.407601 -1.316486 0.084177 0.502042 -5.867372 -1.773892 -0.036725 3.772894 -0.059690 1.100626 -0.027356 -3.206124 -1.123271 -0.627157 -0.072957 -0.013617 
-0.159111 48.638222 0.568428 0.017462 7.109442 -0.032419 -0.341586 -6.811131 -0.459211 -4.991419 -0.048673 0.229199 2.078145 0.331099 -0.573175 15.694476 -0.772420 -0.334043 0.069889 0.041841 -0.195266 -7.159339 -1.393896 -0.216824 16.237045 4.626045 22.036940 -24.998184 -5.974681 -85.402367 5.134682 19.010933 -0.376495 -5.150067 -17.290586 -27.397543 19.417181 -3.406069 -22.026396 -24.512173 2.337385 85.713684 5.068833 -21.770416 -0.806699 -3.946186 15.884593 27.652166 2.494369 -7.142523 0.019219 -1.949683 0.162107 0.129032 3.763217 0.475297 -0.022196 -2.980910 1.708354 0.217692 -1.410348 0.216342 0.388731 -5.576023 -1.649146 -0.117175 3.675602 -0.049877 1.016750 -0.187301 -3.204990 -0.920788 -0.553223 -0.003666 0.017374 
-0.260526 48.656559 0.719523 0.012333 7.243675 -0.019727 -0.438930 -6.834688 -0.504413 -5.050113 -0.091333 0.262248 2.006259 0.397740 -0.645168 15.843468 -0.742277 -0.310072 -0.044031 0.034163 -0.128624 -7.025415 -1.235484 -0.327269 16.227610 4.640000 22.217926 -25.039614 -5.796129 -85.524460 5.508044 18.922846 -0.444507 -5.183123 -17.211670 -27.533701 19.303532 -3.338309 -22.007084 -24.244804 2.347687 85.803421 5.351529 -21.941837 -0.707797 -4.056663 16.080700 27.461807 2.604165 -7.239361 0.018366 -1.523151 0.452038 0.261097 3.677004 0.404218 -0.085060 -3.377758 1.700572 0.130673 -1.455892 0.071231 0.381530 -5.401073 -1.254827 -0.149139 3.443920 0.011508 0.954481 -0.248391 -3.620978 -0.912549 -0.534649 0.035617 0.031339 
